<svg width="16" height="12" viewBox="0 0 16 12" fill="none" xmlns="http://www.w3.org/2000/svg">
<g id="Group">
<path id="Vector" d="M0.5 7V2C0.5 1.73478 0.605357 1.48043 0.792893 1.29289C0.98043 1.10536 1.23478 1 1.5 1H9.5C9.76522 1 10.0196 1.10536 10.2071 1.29289C10.3946 1.48043 10.5 1.73478 10.5 2V6" stroke="#0A1119" stroke-width="1.25" stroke-linecap="round" stroke-linejoin="round"/>
<path id="Vector_2" d="M10.5 6V2H12.5C13.2956 2 14.0587 2.31607 14.6213 2.87868C15.1839 3.44129 15.5 4.20435 15.5 5V9C15.5 9.26522 15.3946 9.51957 15.2071 9.70711C15.0196 9.89464 14.7652 10 14.5 10H14" stroke="#0A1119" stroke-width="1.25" stroke-linecap="round" stroke-linejoin="round"/>
<path id="Vector_3" d="M15.5 6H13.5C13.2348 6 12.9804 5.89464 12.7929 5.70711C12.6054 5.51957 12.5 5.26522 12.5 5V2" stroke="#0A1119" stroke-width="1.25" stroke-linecap="round" stroke-linejoin="round"/>
<path id="Vector_4" d="M12.5 9.5C12.5 9.89783 12.342 10.2794 12.0607 10.5607C11.7794 10.842 11.3978 11 11 11C10.6022 11 10.2206 10.842 9.93934 10.5607C9.65804 10.2794 9.5 9.89783 9.5 9.5C9.5 9.10218 9.65804 8.72064 9.93934 8.43934C10.2206 8.15804 10.6022 8 11 8C11.3978 8 11.7794 8.15804 12.0607 8.43934C12.342 8.72064 12.5 9.10218 12.5 9.5V9.5Z" stroke="#0A1119" stroke-width="1.25" stroke-linecap="round" stroke-linejoin="round"/>
<path id="Vector_5" d="M4.5 9.5C4.5 9.89783 4.34196 10.2794 4.06066 10.5607C3.77936 10.842 3.39782 11 3 11C2.60218 11 2.22064 10.842 1.93934 10.5607C1.65804 10.2794 1.5 9.89783 1.5 9.5C1.5 9.10218 1.65804 8.72064 1.93934 8.43934C2.22064 8.15804 2.60218 8 3 8C3.39782 8 3.77936 8.15804 4.06066 8.43934C4.34196 8.72064 4.5 9.10218 4.5 9.5Z" stroke="#0A1119" stroke-width="1.25" stroke-linecap="round" stroke-linejoin="round"/>
<path id="Vector_6" d="M8 10H6" stroke="#0A1119" stroke-width="1.25" stroke-linecap="round" stroke-linejoin="round"/>
</g>
</svg>
